<svg width="240" height="61" viewBox="0 0 240 61" fill="none" xmlns="http://www.w3.org/2000/svg">
<g clip-path="url(#clip0_33842_33)">
<path fill-rule="evenodd" clip-rule="evenodd" d="M15.1834 11.9042C28.5968 11.8895 42.0103 11.9042 55.4236 11.948C55.4687 11.9919 55.5139 12.0357 55.559 12.0796C55.6191 12.5473 55.6191 13.0151 55.559 13.4828C55.4838 13.5558 55.4086 13.629 55.3334 13.702C41.9801 13.7605 28.6269 13.7605 15.2736 13.702C15.1985 13.629 15.1232 13.5558 15.0481 13.4828C14.9879 13.0151 14.9879 12.5473 15.0481 12.0796C15.1128 12.0319 15.1579 11.9734 15.1834 11.9042Z" fill="#252A32"/>
<path fill-rule="evenodd" clip-rule="evenodd" d="M30.0703 14.6228H40.5364C40.5515 16.0556 40.5364 17.488 40.4913 18.9201C40.386 19.0225 40.2808 19.1247 40.1755 19.2271C38.5515 19.2417 36.9274 19.2563 35.3034 19.2709C33.6113 19.2845 31.9271 19.2407 30.2508 19.1394C30.1943 19.0736 30.1492 19.0005 30.1155 18.9201C30.0703 17.488 30.0553 16.0556 30.0703 14.6228Z" fill="#262B32"/>
<path fill-rule="evenodd" clip-rule="evenodd" d="M105.137 16.8154C105.166 17.2678 105.106 17.7063 104.957 18.1309C104.117 19.1904 103.095 19.3803 101.889 18.7009C100.9 17.6458 100.93 16.6226 101.98 15.6314C103.137 14.97 104.114 15.1601 104.912 16.2014C105.039 16.39 105.114 16.5947 105.137 16.8154Z" fill="#252A32"/>
<path fill-rule="evenodd" clip-rule="evenodd" d="M144.024 21.0252C143.922 21.2995 143.846 21.5919 143.799 21.9022C143.725 22.7361 143.739 23.5547 143.844 24.3578H148.174V26.3749H143.753V41.1086H141.408C141.392 34.4433 141.408 27.778 141.453 21.1129C141.557 20.7692 141.603 20.4184 141.588 20.0604C142.661 16.367 145.127 14.9492 148.986 15.807C149.332 15.9601 149.662 16.1355 149.979 16.3332C149.734 16.9739 149.464 17.6024 149.167 18.2187C146.287 17.1289 144.573 18.0644 144.024 21.0252Z" fill="#242931"/>
<path fill-rule="evenodd" clip-rule="evenodd" d="M132.205 15.6752H129.859V35.2325C129.769 28.699 129.739 22.1506 129.769 15.5875C130.597 15.5589 131.409 15.5882 132.205 15.6752Z" fill="#808388"/>
<path fill-rule="evenodd" clip-rule="evenodd" d="M132.205 15.6753V24.5331H136.716V26.4625H132.205C132.175 29.3424 132.205 32.2072 132.295 35.0571C132.414 36.5028 133.046 37.6868 134.19 38.609C135.349 39.1313 136.507 39.1166 137.663 38.5652C137.969 39.1345 138.225 39.7339 138.43 40.363C138.4 40.4069 138.37 40.4507 138.34 40.4946C134.125 41.9467 131.343 40.6019 129.994 36.4604C129.919 36.0537 129.874 35.6444 129.859 35.2325V15.6753H132.205Z" fill="#232830"/>
<path fill-rule="evenodd" clip-rule="evenodd" d="M105.137 16.8154C105.24 17.1203 105.256 17.4418 105.183 17.7801C105.165 17.9398 105.09 18.0567 104.957 18.1309C105.106 17.7064 105.166 17.2679 105.137 16.8154Z" fill="#AEB0B3"/>
<path fill-rule="evenodd" clip-rule="evenodd" d="M37.8299 23.7437C37.7182 23.894 37.658 24.0694 37.6494 24.2699C36.0486 24.2978 34.4546 24.2686 32.8675 24.1822C32.519 22.8566 32.128 21.5411 31.6946 20.2356C34.1006 20.1187 36.5065 20.1187 38.9126 20.2356C38.4955 21.3897 38.1346 22.559 37.8299 23.7437Z" fill="#242931"/>
<path d="M157.45 26.4489C156.547 27.3886 155.921 28.5621 155.573 29.9704C155.504 30.8458 155.475 31.7228 155.483 32.6013C156.082 36.1215 158.187 38.2116 161.798 38.8718C164.362 39.021 166.383 38.3509 167.864 36.863L169.502 38.5017C167.496 40.4628 164.808 41.3177 161.438 41.0651C157.862 40.519 155.29 38.6624 153.723 35.4958C153.428 34.7884 153.234 34.0575 153.137 33.3034C153.062 32.3113 153.032 31.3168 153.046 30.321V29.8825C153.174 29.7059 153.235 29.5017 153.227 29.2692V29.1814C153.417 28.8304 153.538 28.4499 153.588 28.0407C154.129 26.7404 154.845 25.6387 155.736 24.7351L157.45 26.4489ZM160.806 22.0339C165.587 21.3978 169.151 23.1076 171.497 27.1638C172.559 29.3283 172.815 31.5795 172.265 33.9167C172.081 34.3061 171.931 34.7161 171.814 35.1452C171.506 35.8046 171.163 36.4087 170.787 36.9587L169.079 35.2507C169.286 34.891 169.476 34.5054 169.648 34.0925C169.64 33.8599 169.7 33.6549 169.828 33.4782V33.3913C169.978 32.4331 170.039 31.468 170.009 30.4968C169.858 29.6878 169.601 28.8983 169.242 28.1286C167.268 24.839 164.366 23.6256 160.535 24.489C159.992 24.6912 159.492 24.9308 159.033 25.2038L157.296 23.4675C158.311 22.8132 159.481 22.3353 160.806 22.0339Z" fill="#242931"/>
<path d="M198 21.991C200.344 22.3083 202.428 23.3311 204.25 25.0593C205.147 26.25 205.779 27.5655 206.144 29.0056C206.292 32.2464 206.321 35.4919 206.234 38.741C206.211 40.5339 205.79 42.2293 204.971 43.8269C203.789 45.6461 202.12 46.8299 199.963 47.3787C196.377 48.3159 193.009 47.849 189.858 45.9763C188.563 45.0232 187.631 43.8097 187.061 42.3367C187.837 42.1638 188.649 42.1049 189.498 42.1609C190.826 44.2254 192.75 45.3798 195.272 45.6248C197.604 45.8838 199.739 45.3875 201.678 44.1345C203.094 42.9177 203.785 41.3826 203.752 39.53C203.872 38.7838 203.872 38.0237 203.752 37.2498C203.681 37.2897 203.651 37.3481 203.663 37.4246C201.978 39.1191 200.091 40.1404 198 40.49V38.3416C200.608 37.9137 202.436 36.5271 203.482 34.1804C203.502 33.8595 203.592 33.5669 203.752 33.3035V33.2156C203.9 32.2277 203.96 31.2332 203.933 30.2332C203.821 29.5696 203.626 28.9267 203.347 28.3044C202.076 25.9798 200.294 24.6371 198 24.2761V21.991ZM196 24.2C195.675 24.2222 195.342 24.2607 195.001 24.3142C192.47 24.8993 190.695 26.346 189.678 28.655C189.61 29.0292 189.489 29.3804 189.317 29.7078C188.778 31.987 189.214 34.0626 190.625 35.9343C192.149 37.5229 193.94 38.3654 196 38.4646V40.6218C195.183 40.5973 194.339 40.4821 193.467 40.2751C188.521 38.4817 186.28 35.0175 186.746 29.8826C186.785 29.6752 186.831 29.4709 186.881 29.2693C187.072 28.9183 187.191 28.5378 187.242 28.1287C188.679 24.6721 191.296 22.6114 195.091 21.946C195.398 21.9171 195.701 21.898 196 21.8894V24.2Z" fill="#252931"/>
<path fill-rule="evenodd" clip-rule="evenodd" d="M229.828 30.4966V31.6367H212.956C212.932 31.777 212.962 31.8939 213.046 31.9875C213.305 35.8494 215.38 38.1735 219.272 38.9597C221.53 39.0856 223.545 38.4717 225.317 37.118C226.056 36.3369 226.718 35.5037 227.302 34.6186C227.948 34.9178 228.579 35.2393 229.196 35.5833C228.425 37.5188 227.072 38.9951 225.136 40.0121C222.283 41.2961 219.366 41.4423 216.384 40.4507C214.509 39.6644 213.05 38.422 212.009 36.7234C211.189 35.4306 210.723 34.0274 210.61 32.5137C210.583 31.426 210.643 30.3444 210.791 29.2688C211.735 25.588 214.081 23.2055 217.828 22.1212C223.037 21.2106 226.812 23.0377 229.151 27.6025C229.509 28.5401 229.735 29.5048 229.828 30.4966ZM227.211 29.2688C226.085 25.9195 223.694 24.224 220.039 24.1822C216.7 24.3144 214.52 25.9223 213.497 29.0057C213.482 29.2128 213.451 29.4174 213.407 29.6196H227.211V29.2688Z" fill="#242931"/>
<path d="M71.4813 26.4814C70.6085 27.3967 70.0063 28.5296 69.6786 29.8828C69.6085 30.8166 69.5788 31.7524 69.5887 32.6894C69.6301 33.2556 69.7351 33.8111 69.9042 34.3555C71.0221 36.9232 72.9924 38.4582 75.8143 38.96C78.4464 39.1307 80.5178 38.4868 82.0321 37.0322L83.6717 38.6719C82.2511 39.9557 80.4151 40.784 78.16 41.1523C74.7414 41.3901 71.9445 40.2356 69.7694 37.6885C69.764 37.6408 69.7333 37.6115 69.6786 37.6006C69.5884 40.991 69.5587 44.382 69.5887 47.7734H67.243C67.2004 41.6909 67.2459 35.6105 67.3788 29.5322C67.8052 27.5974 68.6136 26.0215 69.8055 24.8057L71.4813 26.4814ZM74.6415 22.209C79.9439 21.3146 83.7788 23.1999 86.1454 27.8652C86.8076 29.6271 87.0028 31.4399 86.7313 33.3027C86.6032 33.4794 86.5425 33.6844 86.5507 33.917C86.1751 35.1569 85.6573 36.2412 84.9999 37.1719L83.2772 35.4492C83.598 34.9118 83.8786 34.3142 84.1151 33.6543C84.107 33.4217 84.1677 33.2167 84.2958 33.04C84.7198 30.4929 84.0428 28.2713 82.2655 26.375C79.9242 24.2746 77.2318 23.7047 74.1903 24.665C73.7884 24.8337 73.4129 25.0242 73.0614 25.2334L71.3749 23.5469C72.3122 22.9586 73.4013 22.5129 74.6415 22.209Z" fill="#252A32"/>
<path fill-rule="evenodd" clip-rule="evenodd" d="M141.588 20.0603C141.603 20.4183 141.558 20.7691 141.453 21.1127C141.408 27.7779 141.392 34.4431 141.408 41.1085C141.302 34.3703 141.288 27.6173 141.363 20.8496C141.4 20.5653 141.475 20.3022 141.588 20.0603Z" fill="#4A4E55"/>
<path fill-rule="evenodd" clip-rule="evenodd" d="M93.4985 29.9706C93.3686 30.5948 93.2928 31.238 93.2729 31.9C93.2278 34.9402 93.2125 37.9805 93.2278 41.0209H90.882C90.854 37.2476 90.8838 33.4765 90.9722 29.7075C91.6732 26.2529 93.688 23.8411 97.0173 22.4722C98.1748 22.1841 99.2575 22.3448 100.265 22.9545C99.8503 23.6153 99.4145 24.2585 98.9571 24.8839C98.4356 24.6762 97.9096 24.6615 97.3782 24.8401C96.0816 25.4571 95.0738 26.3779 94.3556 27.6027C93.881 28.329 93.595 29.1183 93.4985 29.9706Z" fill="#242931"/>
<path d="M117.95 22.3406C120.949 22.1975 123.249 23.3382 124.851 25.7615C125.214 26.4824 125.439 27.2426 125.528 28.0417C125.66 28.7661 125.721 29.497 125.708 30.2341V41.0212H123.543C123.559 37.8346 123.544 34.648 123.498 31.4617C123.482 31.2105 123.437 30.9769 123.363 30.7605C123.376 30.0856 123.346 29.4128 123.273 28.7429C123.292 28.4804 123.231 28.2467 123.092 28.0417C122.799 26.4851 121.867 25.5052 120.295 25.1033C118.698 24.7031 117.104 24.7031 115.513 25.1033C114.036 25.5917 112.969 26.5127 112.31 27.866C112.205 28.5057 112.13 29.149 112.084 29.7957C111.959 30.2138 111.898 30.6524 111.904 31.1111C111.815 34.4117 111.786 37.7152 111.814 41.0212H109.468C109.453 37.3669 109.468 33.7124 109.513 30.0583C109.648 29.3594 109.753 28.6579 109.829 27.9539C109.985 26.9878 110.36 26.1107 110.956 25.323C112.775 23.2179 115.106 22.2233 117.95 22.3406Z" fill="#232830"/>
<path fill-rule="evenodd" clip-rule="evenodd" d="M179.212 28.4797C179.003 28.7941 178.883 29.1449 178.851 29.5321V29.7075C178.648 30.5017 178.543 31.3203 178.535 32.1631C178.49 35.1155 178.475 38.0682 178.49 41.0209H176.144C176.118 37.2193 176.148 33.419 176.234 29.6198C176.363 29.4431 176.423 29.2385 176.415 29.0059C177.285 25.7197 179.36 23.5126 182.64 22.3845C183.638 22.2105 184.571 22.3713 185.437 22.8668C185.529 22.9108 185.545 22.9693 185.482 23.0422C185.095 23.6048 184.719 24.1749 184.355 24.7524C184.055 24.7677 183.755 24.7531 183.452 24.7085C182.588 24.8072 181.836 25.1434 181.197 25.7171C180.337 26.5079 179.676 27.4287 179.212 28.4797Z" fill="#232830"/>
<path fill-rule="evenodd" clip-rule="evenodd" d="M144.024 21.0251C143.875 22.13 143.815 23.2408 143.844 24.3578C143.739 23.5547 143.725 22.7361 143.799 21.9022C143.847 21.5919 143.922 21.2995 144.024 21.0251Z" fill="#C8C9CB"/>
<path fill-rule="evenodd" clip-rule="evenodd" d="M102.07 22.7791V41.0208H104.325V22.7791C104.416 28.8741 104.445 34.9839 104.416 41.1085H101.98C101.95 34.9839 101.98 28.8741 102.07 22.7791Z" fill="#555A5F"/>
<path d="M104.325 22.7791H102.07V41.0208H104.325V22.7791Z" fill="#232830"/>
<path fill-rule="evenodd" clip-rule="evenodd" d="M37.8298 23.7437C37.8141 23.9507 37.784 24.1553 37.7396 24.3576C36.0827 24.4148 34.4586 24.3564 32.8674 24.1822C34.4545 24.2686 36.0485 24.2978 37.6493 24.2699C37.6579 24.0694 37.7181 23.894 37.8298 23.7437Z" fill="#D0D1D3"/>
<path fill-rule="evenodd" clip-rule="evenodd" d="M132.205 15.6753C132.295 18.5836 132.325 21.507 132.295 24.4454C133.785 24.4164 135.258 24.4457 136.716 24.5331H132.205V15.6753Z" fill="#808387"/>
<path fill-rule="evenodd" clip-rule="evenodd" d="M37.2885 25.4101C36.6598 25.2933 35.9981 25.2349 35.3035 25.2347C34.609 25.2349 33.9473 25.2933 33.3186 25.4101C33.237 25.3479 33.207 25.2602 33.2283 25.147H37.3787C37.4001 25.2602 37.37 25.3479 37.2885 25.4101Z" fill="#B4B5B8"/>
<path fill-rule="evenodd" clip-rule="evenodd" d="M37.2885 25.41C36.973 26.3307 36.6723 27.2662 36.3862 28.2164C36.3389 28.2771 36.2787 28.321 36.2058 28.348C35.5742 28.4065 34.9426 28.4065 34.3111 28.348C34.266 28.3041 34.2209 28.2603 34.1757 28.2164C33.8388 27.2946 33.5531 26.3592 33.3186 25.41C33.9473 25.2933 34.609 25.2349 35.3035 25.2346C35.9981 25.2349 36.6598 25.2933 37.2885 25.41Z" fill="#242931"/>
<path fill-rule="evenodd" clip-rule="evenodd" d="M136.716 26.4624C135.258 26.5498 133.785 26.579 132.295 26.5501V35.0571C132.205 32.2071 132.175 29.3423 132.205 26.4624H136.716Z" fill="#8D9094"/>
<path fill-rule="evenodd" clip-rule="evenodd" d="M153.588 28.041C153.537 28.4501 153.417 28.8301 153.227 29.1811C153.278 28.772 153.398 28.392 153.588 28.041Z" fill="#595D63"/>
<path fill-rule="evenodd" clip-rule="evenodd" d="M187.242 28.1289C187.191 28.538 187.071 28.918 186.881 29.269C186.932 28.8599 187.052 28.4799 187.242 28.1289Z" fill="#676A70"/>
<path fill-rule="evenodd" clip-rule="evenodd" d="M123.092 28.041C123.231 28.2461 123.291 28.48 123.272 28.7426C123.158 28.5317 123.098 28.2978 123.092 28.041Z" fill="#8C8F93"/>
<path fill-rule="evenodd" clip-rule="evenodd" d="M179.212 28.4795C179.143 28.8537 179.023 29.2045 178.851 29.5319C178.884 29.1447 179.004 28.7939 179.212 28.4795Z" fill="#B7B9BC"/>
<path fill-rule="evenodd" clip-rule="evenodd" d="M189.678 28.655C189.609 29.0292 189.489 29.3801 189.317 29.7074C189.35 29.3202 189.47 28.9694 189.678 28.655Z" fill="#BFC0C3"/>
<path fill-rule="evenodd" clip-rule="evenodd" d="M54.4311 49.177C54.5634 49.1028 54.6386 48.9859 54.6567 48.8262C54.7299 48.4589 54.7149 48.1081 54.6116 47.7738C54.3458 46.7118 53.654 46.0832 52.5364 45.8883C40.8974 45.8591 29.2584 45.8298 17.6194 45.8006C16.5205 45.5356 15.7385 44.9071 15.2736 43.915C15.0364 43.0644 15.0364 42.2166 15.2736 41.3717C15.7594 40.3014 16.6014 39.6729 17.7999 39.4861C29.4389 39.4569 41.0779 39.4276 52.7169 39.3984C54.1045 39.0143 54.7511 38.1227 54.6567 36.7235C54.4003 35.7727 53.7838 35.1734 52.8071 34.9257C46.9124 34.8965 41.0177 34.8672 35.123 34.838C35.0479 34.7649 34.9726 34.6918 34.8975 34.6187C34.8524 32.865 34.8373 31.111 34.8524 29.3567H35.7546C35.7395 30.7895 35.7546 32.2219 35.7997 33.654C35.8335 33.7344 35.8786 33.8075 35.935 33.8733C41.4989 33.9025 47.0627 33.9318 52.6266 33.961C55.1237 34.6206 56.0109 36.1553 55.2883 38.5653C54.737 39.5677 53.8798 40.1669 52.7169 40.3631C41.0478 40.3923 29.3787 40.4216 17.7097 40.4508C15.9676 41.1623 15.5014 42.3463 16.3112 44.0027C16.6633 44.4735 17.1295 44.7804 17.7097 44.9236C29.4716 44.9244 41.2309 44.9829 52.9875 45.099C54.5979 45.4819 55.4701 46.4759 55.604 48.0808C55.5412 49.7482 54.6991 50.8298 53.0777 51.3257C40.4463 51.3842 27.8148 51.3842 15.1834 51.3257C14.9427 51.0626 15.1834 50.5364 15.1834 50.5364C27.6946 50.5072 40.2057 50.4779 52.7169 50.4487C53.4844 50.2725 54.0558 49.8486 54.4311 49.177Z" fill="#272C34"/>
<path fill-rule="evenodd" clip-rule="evenodd" d="M176.415 29.0059C176.423 29.2384 176.362 29.443 176.234 29.6198C176.226 29.3872 176.287 29.1826 176.415 29.0059Z" fill="#717479"/>
<path fill-rule="evenodd" clip-rule="evenodd" d="M213.497 29.0059C213.482 29.2129 213.451 29.4175 213.407 29.6198H227.211V29.269C227.297 29.3934 227.327 29.5395 227.302 29.7075C222.61 29.7367 217.918 29.7075 213.227 29.6198C213.301 29.3991 213.392 29.1944 213.497 29.0059Z" fill="#8E9095"/>
<path fill-rule="evenodd" clip-rule="evenodd" d="M153.227 29.2688C153.235 29.5014 153.175 29.706 153.047 29.8827C153.038 29.6501 153.099 29.4455 153.227 29.2688Z" fill="#71747A"/>
<path fill-rule="evenodd" clip-rule="evenodd" d="M90.9721 29.7075C90.8836 33.4765 90.8539 37.2477 90.8818 41.0209C90.7772 37.3523 90.7618 33.6689 90.8367 29.9706C90.8575 29.8621 90.9026 29.7744 90.9721 29.7075Z" fill="#4A4E55"/>
<path fill-rule="evenodd" clip-rule="evenodd" d="M176.235 29.6196C176.148 33.4188 176.118 37.2192 176.144 41.0207C176.04 37.3813 176.024 33.7271 176.099 30.0581C176.117 29.8931 176.162 29.747 176.235 29.6196Z" fill="#54585E"/>
<path fill-rule="evenodd" clip-rule="evenodd" d="M112.085 29.7952C112.09 30.2539 112.03 30.6924 111.904 31.1107C111.899 30.6519 111.959 30.2134 112.085 29.7952Z" fill="#96999D"/>
<path fill-rule="evenodd" clip-rule="evenodd" d="M203.933 30.2336C204.038 30.9197 204.052 31.6213 203.978 32.3385C203.965 32.6571 203.89 32.9494 203.753 33.2155C203.9 32.2276 203.96 31.2337 203.933 30.2336Z" fill="#54585E"/>
<path fill-rule="evenodd" clip-rule="evenodd" d="M210.79 29.2688C210.642 30.3444 210.583 31.426 210.61 32.5137C210.505 31.7691 210.491 31.009 210.565 30.2335C210.603 29.8922 210.678 29.5707 210.79 29.2688Z" fill="#65686E"/>
<path fill-rule="evenodd" clip-rule="evenodd" d="M125.709 30.2336C125.799 33.8437 125.829 37.4687 125.799 41.1085H123.363V30.7598C123.437 30.9764 123.482 31.2102 123.498 31.4615C123.543 34.6478 123.559 37.8342 123.543 41.0208H125.709V30.2336Z" fill="#494D54"/>
<path fill-rule="evenodd" clip-rule="evenodd" d="M170.009 30.4968C170.114 31.1829 170.128 31.8845 170.054 32.6016C170.036 32.8908 169.96 33.1539 169.829 33.3909C169.978 32.4327 170.039 31.468 170.009 30.4968Z" fill="#707378"/>
<path fill-rule="evenodd" clip-rule="evenodd" d="M125.528 28.041C125.584 28.0508 125.629 28.08 125.663 28.1287C125.748 28.6815 125.809 29.237 125.844 29.795C125.919 33.581 125.903 37.3521 125.799 41.1084C125.829 37.4686 125.799 33.8436 125.709 30.2335C125.721 29.4963 125.661 28.7654 125.528 28.041Z" fill="#CBCCCE"/>
<path fill-rule="evenodd" clip-rule="evenodd" d="M229.828 30.4968C229.917 30.8888 229.947 31.2981 229.918 31.7246H213.046V31.9877C212.962 31.8941 212.931 31.7772 212.956 31.6369H229.828V30.4968Z" fill="#8E9094"/>
<path fill-rule="evenodd" clip-rule="evenodd" d="M155.573 29.9705C155.504 30.8459 155.475 31.7229 155.483 32.6015C155.422 32.2519 155.393 31.8865 155.393 31.5052C155.374 30.9717 155.435 30.4602 155.573 29.9705Z" fill="#B3B5B8"/>
<path fill-rule="evenodd" clip-rule="evenodd" d="M69.679 29.8828C69.6089 30.8166 69.5789 31.7522 69.5888 32.6892C69.5287 32.3104 69.4986 31.9157 69.4986 31.5053C69.4795 30.9428 69.5396 30.4019 69.679 29.8828Z" fill="#C5C7C9"/>
<path fill-rule="evenodd" clip-rule="evenodd" d="M93.4984 29.9705C93.3621 33.6657 93.2719 37.3492 93.2277 41.0207C93.2124 37.9803 93.2277 34.94 93.2728 31.8999C93.2927 31.2378 93.3684 30.5946 93.4984 29.9705Z" fill="#B2B4B7"/>
<path fill-rule="evenodd" clip-rule="evenodd" d="M153.047 30.3213C153.032 31.317 153.062 32.311 153.137 33.3031C153.066 33.2059 153.021 33.0889 153.002 32.9523C152.928 32.06 152.942 31.1829 153.047 30.3213Z" fill="#54585E"/>
<path fill-rule="evenodd" clip-rule="evenodd" d="M84.2954 33.04C84.3035 33.2726 84.2431 33.4772 84.115 33.6539C84.1069 33.4214 84.1673 33.2168 84.2954 33.04Z" fill="#6D7075"/>
<path fill-rule="evenodd" clip-rule="evenodd" d="M203.753 33.3032C203.733 33.6244 203.643 33.9167 203.482 34.1802C203.502 33.8591 203.592 33.5668 203.753 33.3032Z" fill="#6A6E73"/>
<path fill-rule="evenodd" clip-rule="evenodd" d="M169.829 33.4785C169.837 33.7111 169.776 33.9157 169.648 34.0924C169.64 33.8598 169.701 33.6552 169.829 33.4785Z" fill="#707378"/>
<path fill-rule="evenodd" clip-rule="evenodd" d="M86.7315 33.3032C86.7396 33.5358 86.6791 33.7404 86.551 33.9171C86.5429 33.6845 86.6033 33.4799 86.7315 33.3032Z" fill="#ABADB0"/>
<path fill-rule="evenodd" clip-rule="evenodd" d="M109.829 27.9534C109.753 28.6575 109.649 29.3591 109.513 30.0582C109.468 33.7122 109.453 37.3665 109.468 41.0208H111.814C111.018 41.1079 110.206 41.1372 109.378 41.1085C109.362 37.3665 109.378 33.6245 109.423 29.8828C109.497 29.2156 109.632 28.5725 109.829 27.9534Z" fill="#5B5F65"/>
<path fill-rule="evenodd" clip-rule="evenodd" d="M172.265 33.917C172.219 34.3733 172.068 34.7826 171.813 35.1448C171.931 34.7157 172.081 34.3064 172.265 33.917Z" fill="#B3B4B7"/>
<path fill-rule="evenodd" clip-rule="evenodd" d="M178.851 29.7075C178.742 30.5515 178.667 31.3993 178.625 32.2508C178.61 35.1891 178.565 38.1124 178.49 41.0209C178.475 38.0682 178.49 35.1156 178.535 32.1631C178.543 31.3203 178.648 30.5017 178.851 29.7075Z" fill="#9B9DA1"/>
<path fill-rule="evenodd" clip-rule="evenodd" d="M203.753 39.53C203.783 38.8122 203.752 38.1106 203.663 37.4252C203.651 37.3483 203.681 37.2898 203.753 37.2498C203.872 38.0237 203.872 38.7837 203.753 39.53Z" fill="#AFB1B4"/>
<path fill-rule="evenodd" clip-rule="evenodd" d="M69.7694 37.6883C69.7092 41.0501 69.6491 44.412 69.5889 47.7739C69.5589 44.3823 69.5889 40.9912 69.6791 37.6006C69.7339 37.6115 69.7639 37.6407 69.7694 37.6883Z" fill="#75787D"/>
<path fill-rule="evenodd" clip-rule="evenodd" d="M189.498 42.161C188.65 42.105 187.837 42.1635 187.062 42.3364C186.973 42.3091 186.914 42.2506 186.881 42.161C187.768 42.045 188.64 42.045 189.498 42.161Z" fill="#53575D"/>
<path fill-rule="evenodd" clip-rule="evenodd" d="M15.2736 41.3716C15.0364 42.2165 15.0364 43.0643 15.2736 43.9149C15.157 43.7972 15.0818 43.651 15.0481 43.4764C14.9879 42.921 14.9879 42.3655 15.0481 41.8101C15.0818 41.6355 15.157 41.4893 15.2736 41.3716Z" fill="#54575E"/>
<path fill-rule="evenodd" clip-rule="evenodd" d="M54.6116 47.7737C54.7149 48.1079 54.73 48.4587 54.6567 48.8261C54.6387 48.9857 54.5634 49.1026 54.4312 49.1769C54.5831 48.723 54.6432 48.2552 54.6116 47.7737Z" fill="#7B7E83"/>
</g>
<defs>
<clipPath id="clip0_33842_33">
<rect width="240" height="61" fill="white"/>
</clipPath>
</defs>
</svg>
